<?xml version="1.0" encoding="utf-8"?>
<!-- Generator: Adobe Illustrator 22.0.1, SVG Export Plug-In . SVG Version: 6.00 Build 0)  -->
<svg version="1.1" id="Режим_изоляции"
	 xmlns="http://www.w3.org/2000/svg" xmlns:xlink="http://www.w3.org/1999/xlink" height="30px" width="30px" viewBox="0 0 36.9 24.9"
	 style="enable-background: new 0 0 36.9 24.9;" xml:space="preserve">
<style type="text/css">
    .st0 { fill: #fff; }
</style>
<g>
	<path class="st0" d="M14.4,19c-1.5,0-2.8,1.2-2.8,2.8c0,1.5,1.2,2.8,2.8,2.8s2.8-1.2,2.8-2.8C17.2,20.2,16,19,14.4,19z"/>
	<path class="st0" d="M25,19c-1.5,0-2.8,1.2-2.8,2.8c0,1.5,1.2,2.8,2.8,2.8c1.5,0,2.8-1.2,2.8-2.8C27.8,20.2,26.6,19,25,19z"/>
	<polygon class="st0" points="11.3,0.7 6.5,0.7 6.5,2.3 10,2.3 13.7,13.7 11.9,18 27.8,18 27.8,16.3 14.4,16.3 15.3,14.5 29.1,13.2
		31.4,4.1 12.4,3.9 	"/>
</g>
</svg>
